<svg width="340" height="80" viewBox="0 0 340 80" fill="none" xmlns="http://www.w3.org/2000/svg">
  <!-- PC-STYLE logo - version per sfond te erret -->
  <defs>
    <linearGradient id="g" x1="0" y1="0" x2="64" y2="64" gradientUnits="userSpaceOnUse">
      <stop stop-color="#4D9FFF"/><stop offset="1" stop-color="#1F6BFF"/>
    </linearGradient>
  </defs>
  <!-- Ikona: chip / motherboard me gjurme qarku -->
  <g transform="translate(8,8)">
    <rect x="14" y="14" width="36" height="36" rx="6" fill="url(#g)"/>
    <rect x="22" y="22" width="20" height="20" rx="3" fill="#06080F"/>
    <path d="M28 32h8M32 28v8" stroke="#4D9FFF" stroke-width="2" stroke-linecap="round"/>
    <!-- pinat e chipit -->
    <g stroke="url(#g)" stroke-width="3" stroke-linecap="round">
      <path d="M22 14V4M32 14V4M42 14V4"/>
      <path d="M22 50v10M32 50v10M42 50v10"/>
      <path d="M14 22H4M14 32H4M14 42H4"/>
      <path d="M50 22h10M50 32h10M50 42h10"/>
    </g>
    <circle cx="60" cy="32" r="2.5" fill="#4D9FFF"/>
    <circle cx="4" cy="32" r="2.5" fill="#4D9FFF"/>
  </g>
  <!-- Teksti futuristik -->
  <text x="92" y="52" font-family="'Segoe UI', Arial, sans-serif" font-size="34" font-weight="800" letter-spacing="4" fill="#EAF2FF">PC<tspan fill="#1F6BFF">-</tspan>STYLE</text>
  <rect x="92" y="60" width="120" height="3" rx="1.5" fill="#1F6BFF"/>
  <rect x="218" y="60" width="14" height="3" rx="1.5" fill="#4D9FFF"/>
</svg>
